<?xml version="1.0" encoding="utf-8"?>
<!-- Generator: Adobe Illustrator 24.0.0, SVG Export Plug-In . SVG Version: 6.00 Build 0)  -->
<svg version="1.1" id="Capa_1" xmlns="http://www.w3.org/2000/svg" xmlns:xlink="http://www.w3.org/1999/xlink" x="0px" y="0px"
	 viewBox="0 0 49.3 72.9" style="enable-background:new 0 0 49.3 72.9;" xml:space="preserve">
<style type="text/css">
	.st0{fill:#F18767;}
</style>
<g>
	<path class="st0" d="M48.6,59.6v12.7H0.5C1,67.5,2.6,63,5.2,58.7c2.6-4.3,7.7-10,15.4-17.2c6.2-5.8,10-9.7,11.4-11.7
		c1.9-2.8,2.8-5.6,2.8-8.4c0-3.1-0.8-5.4-2.5-7.1c-1.6-1.6-3.9-2.5-6.8-2.5c-2.9,0-5.1,0.9-6.8,2.6C17,16.2,16,19,15.8,23L2.1,21.7
		c0.8-7.6,3.4-13,7.7-16.3c4.3-3.3,9.7-4.9,16.1-4.9c7.1,0,12.6,1.9,16.7,5.7c4,3.8,6.1,8.5,6.1,14.2c0,3.2-0.6,6.3-1.7,9.2
		c-1.2,2.9-3,6-5.5,9.2c-1.7,2.1-4.7,5.2-9,9.1c-4.3,4-7.1,6.6-8.2,7.9c-1.2,1.3-2.1,2.6-2.8,3.8H48.6z"/>
</g>
</svg>
